<svg width="32" height="32" viewBox="0 0 32 32" fill="none" xmlns="http://www.w3.org/2000/svg">
<circle cx="16" cy="16" r="15.5" fill="#FFFAE9" stroke="url(#paint0_linear_12_332)"/>
<path d="M24.75 16C24.75 16.1658 24.6842 16.3247 24.5669 16.4419C24.4497 16.5591 24.2908 16.625 24.125 16.625H22.0109L19.0594 22.5297C19.0074 22.6335 18.9276 22.7208 18.8288 22.7818C18.73 22.8428 18.6161 22.8751 18.5 22.875H18.4688C18.3475 22.869 18.2307 22.8278 18.1324 22.7565C18.0342 22.6852 17.9589 22.5868 17.9156 22.4734L13.4492 10.7469L10.9437 16.2586C10.8941 16.3678 10.8141 16.4604 10.7132 16.5254C10.6124 16.5904 10.495 16.6249 10.375 16.625H7.875C7.70924 16.625 7.55027 16.5591 7.43306 16.4419C7.31585 16.3247 7.25 16.1658 7.25 16C7.25 15.8342 7.31585 15.6753 7.43306 15.5581C7.55027 15.4408 7.70924 15.375 7.875 15.375H9.97266L12.9313 8.8664C12.9823 8.75409 13.0654 8.65938 13.1701 8.5942C13.2748 8.52902 13.3965 8.49629 13.5198 8.50014C13.6431 8.50398 13.7625 8.54422 13.863 8.61579C13.9634 8.68736 14.0405 8.78707 14.0844 8.90234L18.5773 20.6992L21.0656 15.7219C21.1174 15.6177 21.1971 15.5301 21.296 15.4688C21.3948 15.4076 21.5087 15.3751 21.625 15.375H24.125C24.2908 15.375 24.4497 15.4408 24.5669 15.5581C24.6842 15.6753 24.75 15.8342 24.75 16Z" fill="url(#paint1_linear_12_332)"/>
<defs>
<linearGradient id="paint0_linear_12_332" x1="32" y1="16" x2="0" y2="16" gradientUnits="userSpaceOnUse">
<stop stop-color="#FFC727"/>
<stop offset="0.56" stop-color="#F9C11A"/>
</linearGradient>
<linearGradient id="paint1_linear_12_332" x1="24.75" y1="15.6874" x2="7.25" y2="15.6874" gradientUnits="userSpaceOnUse">
<stop stop-color="#FFC727"/>
<stop offset="0.56" stop-color="#F9C11A"/>
</linearGradient>
</defs>
</svg>
